# xmcd
#
# Track frame offsets:
#	150
#	14995
#	30932
#	50850
#	65178
#	85229
#	105509
#	119522
#	131789
#	147557
#
# Disc length: 2177 seconds
#
# Revision: 4
# Processed by: cddbd v1.5.2PL0 Copyright (c) Steve Scherf et al.
# Submitted via: EasyCDDAExtractor 9.1.3.1
#
DISCID=9b087f0a
DTITLE=Reba McEntire - What Am I Gonna Do About You
DYEAR=1986
DGENRE=Country
TTITLE0=Why Not Tonight
TTITLE1=What Am I Gonna Do About You
TTITLE2=Lookin' For a New Love Story
TTITLE3=Take Me Back
TTITLE4=My Mind Is On You
TTITLE5=Let The Music Lift You Up
TTITLE6=I Heard Her Cryin'
TTITLE7=No Such Thing
TTITLE8=One Promise Too Late
TTITLE9=Till It Snows In Mexico
EXTD=
EXTT0=
EXTT1=
EXTT2=
EXTT3=
EXTT4=
EXTT5=
EXTT6=
EXTT7=
EXTT8=
EXTT9=
PLAYORDER=
